<svg xmlns="http://www.w3.org/2000/svg" xmlns:xlink="http://www.w3.org/1999/xlink" width="300" height="200" viewBox="0 0 300 200">
  <defs>
    <clipPath id="clip-path">
      <rect id="Rectangle_30" data-name="Rectangle 30" width="300" height="200" transform="translate(90 1048)" fill="#dedede"/>
    </clipPath>
  </defs>
  <g id="Mask_Group_1" data-name="Mask Group 1" transform="translate(-90 -1048)" clip-path="url(#clip-path)">
    <g id="monitor-window" transform="translate(94.306 1001.574)">
      <path id="Path_53" data-name="Path 53" d="M263.705,162.973A116.555,116.555,0,1,0,40.969,211.052H253.332A116.2,116.2,0,0,0,263.705,162.973Z" fill="#f0f2ff"/>
      <line id="Line_38" data-name="Line 38" x2="227.282" transform="translate(32.053 211.052)" fill="none" stroke="#4550e5" stroke-linecap="round" stroke-linejoin="round" stroke-width="2.914"/>
      <line id="Line_39" data-name="Line 39" x2="7.285" transform="translate(18.94 211.052)" fill="none" stroke="#4550e5" stroke-linecap="round" stroke-linejoin="round" stroke-width="2.914"/>
      <line id="Line_40" data-name="Line 40" x2="7.285" transform="translate(265.162 211.052)" fill="none" stroke="#4550e5" stroke-linecap="round" stroke-linejoin="round" stroke-width="2.914"/>
      <rect id="Rectangle_32" data-name="Rectangle 32" width="140.74" height="100.529" rx="10.49" transform="translate(68.913 120.314)" fill="#d6daff"/>
      <path id="Path_54" data-name="Path 54" d="M154.027,120.314H80.977a12.063,12.063,0,0,0-12.063,12.063v73.051Z" fill="#fff"/>
      <rect id="Rectangle_33" data-name="Rectangle 33" width="140.74" height="100.529" rx="10.49" transform="translate(68.913 120.314)" fill="none" stroke="#4550e5" stroke-linecap="round" stroke-linejoin="round" stroke-width="2.914"/>
      <path id="Path_55" data-name="Path 55" d="M197.59,220.842A12.063,12.063,0,0,0,209.8,208.779v-4.021H68.913v4.021a12.063,12.063,0,0,0,12.063,12.063Z" fill="#fff" stroke="#4550e5" stroke-linecap="round" stroke-linejoin="round" stroke-width="2.914"/>
      <path id="Path_56" data-name="Path 56" d="M151.347,236.927H127.22l2.011-16.085h20.106Z" fill="#fff"/>
      <path id="Path_57" data-name="Path 57" d="M151.347,236.927H127.22l2.011-16.085h20.106Z" fill="none" stroke="#4550e5" stroke-linecap="round" stroke-linejoin="round" stroke-width="2.914"/>
      <path id="Path_58" data-name="Path 58" d="M165.421,244.969H113.146a8.042,8.042,0,0,1,8.042-8.042h36.161a8.071,8.071,0,0,1,8.071,8.042Z" fill="#fff" stroke="#4550e5" stroke-linecap="round" stroke-linejoin="round" stroke-width="2.914"/>
      <path id="Path_59" data-name="Path 59" d="M101.082,106.24H217.637v69.408a6.993,6.993,0,0,1-6.993,6.993H108.076a6.993,6.993,0,0,1-6.993-6.993Z" fill="#fff" stroke="#4550e5" stroke-linecap="round" stroke-linejoin="round" stroke-width="2.914"/>
      <path id="Path_60" data-name="Path 60" d="M108.076,82.113H210.7a6.993,6.993,0,0,1,6.993,6.993V106.24H101.141V89.106a6.993,6.993,0,0,1,6.935-6.993Z" fill="#fff" stroke="#4550e5" stroke-linecap="round" stroke-linejoin="round" stroke-width="2.914"/>
      <circle id="Ellipse_5" data-name="Ellipse 5" cx="4.021" cy="4.021" r="4.021" transform="translate(109.125 90.155)" fill="#d6daff" stroke="#4550e5" stroke-linecap="round" stroke-linejoin="round" stroke-width="2.914"/>
      <circle id="Ellipse_6" data-name="Ellipse 6" cx="4.021" cy="4.021" r="4.021" transform="translate(125.209 90.155)" fill="#d6daff" stroke="#4550e5" stroke-linecap="round" stroke-linejoin="round" stroke-width="2.914"/>
      <circle id="Ellipse_7" data-name="Ellipse 7" cx="4.021" cy="4.021" r="4.021" transform="translate(141.294 90.155)" fill="#d6daff" stroke="#4550e5" stroke-linecap="round" stroke-linejoin="round" stroke-width="2.914"/>
      <rect id="Rectangle_34" data-name="Rectangle 34" width="16.085" height="16.085" rx="2.914" transform="translate(137.273 130.367)" fill="#d6daff" stroke="#4550e5" stroke-linecap="round" stroke-linejoin="round" stroke-width="2.914"/>
      <rect id="Rectangle_35" data-name="Rectangle 35" width="16.085" height="16.085" rx="2.914" transform="translate(163.41 130.367)" fill="#d6daff" stroke="#4550e5" stroke-linecap="round" stroke-linejoin="round" stroke-width="2.914"/>
      <rect id="Rectangle_36" data-name="Rectangle 36" width="16.085" height="16.085" rx="2.914" transform="translate(189.547 130.367)" fill="#d6daff" stroke="#4550e5" stroke-linecap="round" stroke-linejoin="round" stroke-width="2.914"/>
      <rect id="Rectangle_37" data-name="Rectangle 37" width="16.085" height="16.085" rx="2.914" transform="translate(137.273 154.494)" fill="#d6daff" stroke="#4550e5" stroke-linecap="round" stroke-linejoin="round" stroke-width="2.914"/>
      <rect id="Rectangle_38" data-name="Rectangle 38" width="16.085" height="16.085" rx="2.914" transform="translate(163.41 154.494)" fill="#d6daff" stroke="#4550e5" stroke-linecap="round" stroke-linejoin="round" stroke-width="2.914"/>
      <rect id="Rectangle_39" data-name="Rectangle 39" width="16.085" height="16.085" rx="2.914" transform="translate(189.547 154.494)" fill="#d6daff" stroke="#4550e5" stroke-linecap="round" stroke-linejoin="round" stroke-width="2.914"/>
      <rect id="Rectangle_40" data-name="Rectangle 40" width="16.085" height="8.042" rx="2.914" transform="translate(113.146 114.282)" fill="#d6daff" stroke="#4550e5" stroke-linecap="round" stroke-linejoin="round" stroke-width="2.914"/>
      <rect id="Rectangle_41" data-name="Rectangle 41" width="68.359" height="8.042" rx="2.914" transform="translate(137.273 114.282)" fill="#d6daff" stroke="#4550e5" stroke-linejoin="round" stroke-width="2.914"/>
      <line id="Line_41" data-name="Line 41" x2="16.085" transform="translate(113.146 130.367)" fill="none" stroke="#4550e5" stroke-linecap="round" stroke-linejoin="round" stroke-width="2.914"/>
      <line id="Line_42" data-name="Line 42" x2="16.085" transform="translate(113.146 138.409)" fill="none" stroke="#4550e5" stroke-linecap="round" stroke-linejoin="round" stroke-width="2.914"/>
      <line id="Line_43" data-name="Line 43" x2="16.085" transform="translate(113.146 146.451)" fill="none" stroke="#4550e5" stroke-linecap="round" stroke-linejoin="round" stroke-width="2.914"/>
      <line id="Line_44" data-name="Line 44" x2="16.085" transform="translate(113.146 154.494)" fill="none" stroke="#4550e5" stroke-linecap="round" stroke-linejoin="round" stroke-width="2.914"/>
      <line id="Line_45" data-name="Line 45" x2="16.085" transform="translate(113.146 162.536)" fill="none" stroke="#4550e5" stroke-linecap="round" stroke-linejoin="round" stroke-width="2.914"/>
      <line id="Line_46" data-name="Line 46" x2="10.053" transform="translate(113.146 170.578)" fill="none" stroke="#4550e5" stroke-linecap="round" stroke-linejoin="round" stroke-width="2.914"/>
      <path id="Path_61" data-name="Path 61" d="M243.833,214.607c-.583,2.127-1.748,2.185-2.593,0l-13.2-31.5c-.845-2.04,0-2.914,2.185-2.156l31.645,13.171c2.04.874,1.952,2.04-.175,2.622l-10.14,2.914a7.867,7.867,0,0,0-4.954,4.924Z" fill="#fff" stroke="#4550e5" stroke-linejoin="round" stroke-width="2.914"/>
      <circle id="Ellipse_8" data-name="Ellipse 8" cx="1.69" cy="1.69" r="1.69" transform="translate(137.593 211.11)" fill="none" stroke="#4550e5" stroke-linecap="round" stroke-linejoin="round" stroke-width="2.914"/>
    </g>
  </g>
</svg>
