<svg xmlns="http://www.w3.org/2000/svg" xmlns:xlink="http://www.w3.org/1999/xlink" width="300" height="200" viewBox="0 0 300 200">
  <defs>
    <clipPath id="clip-path">
      <rect id="Rectangle_30" data-name="Rectangle 30" width="300" height="200" transform="translate(90 1048)" fill="#dedede"/>
    </clipPath>
  </defs>
  <g id="Mask_Group_3" data-name="Mask Group 3" transform="translate(-90 -1048)" clip-path="url(#clip-path)">
    <g id="monitor-cash-credit-card" transform="translate(103.586 1011.098)">
      <path id="Path_76" data-name="Path 76" d="M246.073,146.319A109.5,109.5,0,1,0,36.847,191.624H236.327A109.089,109.089,0,0,0,246.073,146.319Z" fill="#f0f2ff"/>
      <line id="Line_50" data-name="Line 50" x2="213.524" transform="translate(28.443 191.487)" fill="none" stroke="#4550e5" stroke-linecap="round" stroke-linejoin="round" stroke-width="2.737"/>
      <line id="Line_51" data-name="Line 51" x2="6.844" transform="translate(16.124 191.487)" fill="none" stroke="#4550e5" stroke-linecap="round" stroke-linejoin="round" stroke-width="2.737"/>
      <line id="Line_52" data-name="Line 52" x2="6.844" transform="translate(247.442 191.487)" fill="none" stroke="#4550e5" stroke-linecap="round" stroke-linejoin="round" stroke-width="2.737"/>
      <ellipse id="Ellipse_10" data-name="Ellipse 10" cx="43.115" cy="4.298" rx="43.115" ry="4.298" transform="translate(94.06 228.307)" fill="#f0f2ff"/>
      <path id="Path_77" data-name="Path 77" d="M190.611,194.663V139.612a6.9,6.9,0,0,0-6.9-6.9H90.638a6.9,6.9,0,0,0-6.926,6.9v55.051Z" fill="#d6daff"/>
      <path id="Path_78" data-name="Path 78" d="M97.509,194.663,159.6,132.577H90.611a6.9,6.9,0,0,0-6.9,7.035v55.051Z" fill="#fff"/>
      <path id="Path_79" data-name="Path 79" d="M190.611,194.663V208.35a6.9,6.9,0,0,1-6.9,6.9H90.638a6.9,6.9,0,0,1-6.9-6.9V194.663Z" fill="#fff" stroke="#4550e5" stroke-linecap="round" stroke-linejoin="round" stroke-width="2.737"/>
      <path id="Path_80" data-name="Path 80" d="M140.625,205.011a3.449,3.449,0,1,1-3.449-3.449,3.449,3.449,0,0,1,3.449,3.449Z" fill="#d6daff" stroke="#4550e5" stroke-linecap="round" stroke-linejoin="round" stroke-width="2.737"/>
      <path id="Path_81" data-name="Path 81" d="M154.422,229.155H119.9l1.752-13.8H152.7Z" fill="#fff" stroke="#4550e5" stroke-linecap="round" stroke-linejoin="round" stroke-width="2.737"/>
      <line id="Line_53" data-name="Line 53" x2="55.16" transform="translate(109.582 229.155)" fill="none" stroke="#4550e5" stroke-linecap="round" stroke-linejoin="round" stroke-width="2.737"/>
      <path id="Path_82" data-name="Path 82" d="M190.611,194.663V139.612a6.9,6.9,0,0,0-6.9-6.9H90.638a6.9,6.9,0,0,0-6.926,6.9v55.051Z" fill="none" stroke="#4550e5" stroke-linecap="round" stroke-linejoin="round" stroke-width="2.737"/>
      <path id="Path_83" data-name="Path 83" d="M157.871,163.62a20.7,20.7,0,1,1-20.7-20.7A20.7,20.7,0,0,1,157.871,163.62Z" fill="#fff"/>
      <path id="Path_84" data-name="Path 84" d="M157.871,163.62a20.7,20.7,0,1,1-20.7-20.7A20.7,20.7,0,0,1,157.871,163.62Z" fill="none" stroke="#4550e5" stroke-linecap="round" stroke-linejoin="round" stroke-width="2.737"/>
      <path id="Path_85" data-name="Path 85" d="M133.726,175.692a5.147,5.147,0,0,1-3.668-1.506l-6.871-6.9a5.174,5.174,0,0,1,7.309-7.309l3.258,3.23,8.4-8.4a5.174,5.174,0,0,1,7.309,7.309l-12.072,12.072A5.119,5.119,0,0,1,133.726,175.692Z" fill="#d6daff"/>
      <path id="Path_86" data-name="Path 86" d="M133.726,175.692a5.147,5.147,0,0,1-3.668-1.506l-6.871-6.9a5.174,5.174,0,0,1,7.309-7.309l3.258,3.23,8.4-8.4a5.174,5.174,0,0,1,7.309,7.309l-12.072,12.072A5.119,5.119,0,0,1,133.726,175.692Z" fill="none" stroke="#4550e5" stroke-linecap="round" stroke-linejoin="round" stroke-width="2.737"/>
      <rect id="Rectangle_42" data-name="Rectangle 42" width="68.985" height="41.391" rx="2.874" transform="translate(3.435 97.92) rotate(-15.83)" fill="#fff"/>
      <path id="Path_87" data-name="Path 87" d="M70.682,107.556l-3.75-13.277a6.926,6.926,0,0,1-8.541-4.763l-39.8,11.278a6.926,6.926,0,0,1-4.763,8.541l3.75,13.277a6.9,6.9,0,0,1,8.541,4.736l39.8-11.278A6.9,6.9,0,0,1,70.682,107.556Z" fill="#fff"/>
      <path id="Path_88" data-name="Path 88" d="M48.892,106.543a6.9,6.9,0,1,1-8.514-4.736,6.9,6.9,0,0,1,8.514,4.736Z" fill="#d6daff"/>
      <path id="Path_89" data-name="Path 89" d="M48.892,106.543a6.9,6.9,0,1,1-8.514-4.736,6.9,6.9,0,0,1,8.514,4.736Z" fill="none" stroke="#4550e5" stroke-linecap="round" stroke-linejoin="round" stroke-width="2.737"/>
      <path id="Path_90" data-name="Path 90" d="M70.682,107.556l-3.75-13.277a6.926,6.926,0,0,1-8.541-4.763l-39.8,11.278a6.926,6.926,0,0,1-4.763,8.541l3.75,13.277a6.9,6.9,0,0,1,8.541,4.736l39.8-11.278A6.9,6.9,0,0,1,70.682,107.556Z" fill="none" stroke="#4550e5" stroke-linecap="round" stroke-linejoin="round" stroke-width="2.737"/>
      <rect id="Rectangle_43" data-name="Rectangle 43" width="68.985" height="41.391" rx="2.874" transform="translate(3.435 97.92) rotate(-15.83)" fill="none" stroke="#4550e5" stroke-linecap="round" stroke-linejoin="round" stroke-width="2.737"/>
      <path id="Path_91" data-name="Path 91" d="M254.094,136.163l-48.645-13.934a5.721,5.721,0,0,1-3.942-7.09L209.719,86.4a5.721,5.721,0,0,1,7.09-3.942l48.727,13.934a5.749,5.749,0,0,1,3.942,7.09l-8.212,28.744a5.721,5.721,0,0,1-7.172,3.942Z" fill="#fff"/>
      <rect id="Rectangle_44" data-name="Rectangle 44" width="62.086" height="6.898" transform="translate(209.439 87.495) rotate(15.98)" fill="#d6daff"/>
      <line id="Line_54" data-name="Line 54" x2="16.589" y2="4.736" transform="translate(208.46 115.933)" fill="none" stroke="#4550e5" stroke-linecap="round" stroke-linejoin="round" stroke-width="2.737"/>
      <rect id="Rectangle_45" data-name="Rectangle 45" width="48.289" height="6.898" transform="translate(212.269 102.644) rotate(15.98)" fill="#fff"/>
      <path id="Path_92" data-name="Path 92" d="M254.094,136.163l-48.645-13.934a5.721,5.721,0,0,1-3.942-7.09L209.719,86.4a5.721,5.721,0,0,1,7.09-3.942l48.727,13.934a5.749,5.749,0,0,1,3.942,7.09l-8.212,28.744a5.721,5.721,0,0,1-7.172,3.942Z" fill="none" stroke="#4550e5" stroke-linecap="round" stroke-linejoin="round" stroke-width="2.737"/>
      <rect id="Rectangle_46" data-name="Rectangle 46" width="62.086" height="6.898" transform="translate(209.439 87.495) rotate(15.98)" fill="none" stroke="#4550e5" stroke-linecap="round" stroke-linejoin="round" stroke-width="2.737"/>
      <rect id="Rectangle_47" data-name="Rectangle 47" width="48.289" height="6.898" transform="translate(212.269 102.644) rotate(15.98)" fill="none" stroke="#4550e5" stroke-linecap="round" stroke-linejoin="round" stroke-width="2.737"/>
      <circle id="Ellipse_11" data-name="Ellipse 11" cx="22.995" cy="22.995" r="22.995" transform="translate(114.181 58.856)" fill="#d6daff"/>
      <path id="Path_93" data-name="Path 93" d="M137.176,58.856a22.995,22.995,0,0,0-16.261,39.256L153.436,65.7A23.022,23.022,0,0,0,137.176,58.856Z" fill="#fff"/>
      <circle id="Ellipse_12" data-name="Ellipse 12" cx="22.995" cy="22.995" r="22.995" transform="translate(114.181 58.856)" fill="none" stroke="#4550e5" stroke-miterlimit="10" stroke-width="2.737"/>
      <line id="Line_55" data-name="Line 55" y2="2.874" transform="translate(137.176 93.348)" fill="none" stroke="#4550e5" stroke-linecap="round" stroke-linejoin="round" stroke-width="2.737"/>
      <line id="Line_56" data-name="Line 56" y2="2.874" transform="translate(137.176 67.479)" fill="none" stroke="#4550e5" stroke-linecap="round" stroke-linejoin="round" stroke-width="2.737"/>
      <path id="Path_94" data-name="Path 94" d="M131.4,87.6a5.749,5.749,0,1,0,5.749-5.749A5.749,5.749,0,1,1,142.9,76.1" fill="none" stroke="#4550e5" stroke-linecap="round" stroke-linejoin="round" stroke-width="2.737"/>
    </g>
  </g>
</svg>
